<svg width="45" height="49" viewBox="0 0 45 49" fill="none" xmlns="http://www.w3.org/2000/svg">
<circle cx="22.5" cy="26.5" r="22.5" fill="#181C2E"/>
<path d="M17 16.9998L14 20.9998V34.9998C14 35.5302 14.2107 36.0389 14.5858 36.414C14.9609 36.789 15.4696 36.9998 16 36.9998H30C30.5304 36.9998 31.0391 36.789 31.4142 36.414C31.7893 36.0389 32 35.5302 32 34.9998V20.9998L29 16.9998H17Z" stroke="white" stroke-width="2" stroke-linecap="round" stroke-linejoin="round"/>
<path d="M14 20.9998H32" stroke="white" stroke-width="2" stroke-linecap="round" stroke-linejoin="round"/>
<path d="M27 24.9998C27 26.0606 26.5786 27.078 25.8284 27.8282C25.0783 28.5783 24.0609 28.9998 23 28.9998C21.9391 28.9998 20.9217 28.5783 20.1716 27.8282C19.4214 27.078 19 26.0606 19 24.9998" stroke="white" stroke-width="2" stroke-linecap="round" stroke-linejoin="round"/>
</svg>
